<mxfile host="app.diagrams.net" agent="Mozilla/5.0 (X11; Ubuntu; Linux x86_64; rv:132.0) Gecko/20100101 Firefox/132.0" version="24.8.6">
  <diagram name="Page-1" id="x5PK8bB1wK2QqStjdWlZ">
    <mxGraphModel dx="651" dy="419" grid="1" gridSize="10" guides="1" tooltips="1" connect="1" arrows="1" fold="1" page="1" pageScale="1" pageWidth="850" pageHeight="1100" math="0" shadow="0">
      <root>
        <mxCell id="0" />
        <mxCell id="1" parent="0" />
        <mxCell id="fdwmR1RGflCsWQRj89B6-2" value="&lt;div&gt;scrapers&lt;/div&gt;" style="rounded=0;whiteSpace=wrap;html=1;" vertex="1" parent="1">
          <mxGeometry x="170" y="470" width="120" height="60" as="geometry" />
        </mxCell>
        <mxCell id="fdwmR1RGflCsWQRj89B6-3" value="" style="endArrow=classic;html=1;rounded=0;exitX=1;exitY=0.5;exitDx=0;exitDy=0;" edge="1" parent="1" source="fdwmR1RGflCsWQRj89B6-2">
          <mxGeometry width="50" height="50" relative="1" as="geometry">
            <mxPoint x="400" y="560" as="sourcePoint" />
            <mxPoint x="340" y="500" as="targetPoint" />
          </mxGeometry>
        </mxCell>
        <mxCell id="fdwmR1RGflCsWQRj89B6-4" value="&lt;div&gt;topic&lt;/div&gt;" style="whiteSpace=wrap;html=1;rounded=1;arcSize=50;align=center;verticalAlign=middle;strokeWidth=1;autosize=1;spacing=4;treeFolding=1;treeMoving=1;newEdgeStyle={&quot;edgeStyle&quot;:&quot;entityRelationEdgeStyle&quot;,&quot;startArrow&quot;:&quot;none&quot;,&quot;endArrow&quot;:&quot;none&quot;,&quot;segment&quot;:10,&quot;curved&quot;:1,&quot;sourcePerimeterSpacing&quot;:0,&quot;targetPerimeterSpacing&quot;:0};" vertex="1" parent="1">
          <mxGeometry x="340" y="485" width="70" height="30" as="geometry" />
        </mxCell>
        <mxCell id="fdwmR1RGflCsWQRj89B6-8" value="&lt;div&gt;main-service (monolith)&lt;/div&gt;&lt;div&gt;&lt;br&gt;&lt;/div&gt;" style="rounded=0;whiteSpace=wrap;html=1;" vertex="1" parent="1">
          <mxGeometry x="315.0000000000002" y="590" width="120" height="60" as="geometry" />
        </mxCell>
        <mxCell id="fdwmR1RGflCsWQRj89B6-9" value="" style="endArrow=classic;startArrow=classic;html=1;rounded=0;exitX=0.458;exitY=0.007;exitDx=0;exitDy=0;exitPerimeter=0;entryX=0.5;entryY=1;entryDx=0;entryDy=0;" edge="1" parent="1" source="fdwmR1RGflCsWQRj89B6-8" target="fdwmR1RGflCsWQRj89B6-4">
          <mxGeometry width="50" height="50" relative="1" as="geometry">
            <mxPoint x="400" y="560" as="sourcePoint" />
            <mxPoint x="450" y="510" as="targetPoint" />
          </mxGeometry>
        </mxCell>
        <mxCell id="fdwmR1RGflCsWQRj89B6-10" value="" style="shape=cylinder3;whiteSpace=wrap;html=1;boundedLbl=1;backgroundOutline=1;size=15;" vertex="1" parent="1">
          <mxGeometry x="180" y="580" width="60" height="80" as="geometry" />
        </mxCell>
        <mxCell id="fdwmR1RGflCsWQRj89B6-11" value="" style="endArrow=classic;startArrow=classic;html=1;rounded=0;exitX=1;exitY=0.5;exitDx=0;exitDy=0;exitPerimeter=0;entryX=0;entryY=0.5;entryDx=0;entryDy=0;" edge="1" parent="1" source="fdwmR1RGflCsWQRj89B6-10" target="fdwmR1RGflCsWQRj89B6-8">
          <mxGeometry width="50" height="50" relative="1" as="geometry">
            <mxPoint x="400" y="640" as="sourcePoint" />
            <mxPoint x="450" y="590" as="targetPoint" />
          </mxGeometry>
        </mxCell>
        <mxCell id="fdwmR1RGflCsWQRj89B6-12" value="&lt;div&gt;tgbot&lt;/div&gt;" style="rounded=0;whiteSpace=wrap;html=1;" vertex="1" parent="1">
          <mxGeometry x="315" y="750" width="120" height="60" as="geometry" />
        </mxCell>
        <mxCell id="fdwmR1RGflCsWQRj89B6-14" value="" style="endArrow=classic;startArrow=classic;html=1;rounded=0;exitX=0.458;exitY=0;exitDx=0;exitDy=0;exitPerimeter=0;entryX=0.5;entryY=1;entryDx=0;entryDy=0;" edge="1" parent="1" source="fdwmR1RGflCsWQRj89B6-12" target="fdwmR1RGflCsWQRj89B6-8">
          <mxGeometry width="50" height="50" relative="1" as="geometry">
            <mxPoint x="400" y="690" as="sourcePoint" />
            <mxPoint x="450" y="640" as="targetPoint" />
          </mxGeometry>
        </mxCell>
        <mxCell id="fdwmR1RGflCsWQRj89B6-15" value="Actor" style="shape=umlActor;verticalLabelPosition=bottom;verticalAlign=top;html=1;outlineConnect=0;" vertex="1" parent="1">
          <mxGeometry x="360" y="910" width="30" height="60" as="geometry" />
        </mxCell>
        <mxCell id="fdwmR1RGflCsWQRj89B6-18" value="" style="endArrow=classic;startArrow=classic;html=1;rounded=0;exitX=0.5;exitY=0;exitDx=0;exitDy=0;exitPerimeter=0;entryX=0.539;entryY=0.998;entryDx=0;entryDy=0;entryPerimeter=0;" edge="1" parent="1" source="fdwmR1RGflCsWQRj89B6-15" target="fdwmR1RGflCsWQRj89B6-12">
          <mxGeometry width="50" height="50" relative="1" as="geometry">
            <mxPoint x="400" y="850" as="sourcePoint" />
            <mxPoint x="450" y="800" as="targetPoint" />
          </mxGeometry>
        </mxCell>
        <mxCell id="fdwmR1RGflCsWQRj89B6-19" value="" style="endArrow=classic;startArrow=classic;html=1;rounded=0;exitX=1;exitY=0.5;exitDx=0;exitDy=0;entryX=0;entryY=0.5;entryDx=0;entryDy=0;" edge="1" parent="1" source="fdwmR1RGflCsWQRj89B6-8" target="fdwmR1RGflCsWQRj89B6-20">
          <mxGeometry width="50" height="50" relative="1" as="geometry">
            <mxPoint x="480" y="650" as="sourcePoint" />
            <mxPoint x="530" y="600" as="targetPoint" />
          </mxGeometry>
        </mxCell>
        <mxCell id="fdwmR1RGflCsWQRj89B6-20" value="&lt;div&gt;web service with ml model (satellite)&lt;/div&gt;" style="rounded=0;whiteSpace=wrap;html=1;" vertex="1" parent="1">
          <mxGeometry x="540" y="590" width="120" height="60" as="geometry" />
        </mxCell>
      </root>
    </mxGraphModel>
  </diagram>
</mxfile>
